<svg width="50" height="50" viewBox="0 0 50 50" fill="none" xmlns="http://www.w3.org/2000/svg">
<path fill-rule="evenodd" clip-rule="evenodd" d="M32.8417 8.33337C34.0023 8.33341 35.1399 8.65657 36.1271 9.26664C37.1143 9.87672 37.9122 10.7496 38.4313 11.7875L41.3188 17.5605C41.8272 17.3521 42.3272 17.1271 42.8188 16.8855C43.3133 16.6385 43.8857 16.5981 44.41 16.7731C44.9344 16.9481 45.3677 17.3243 45.6147 17.8188C45.8616 18.3133 45.9021 18.8857 45.727 19.41C45.552 19.9343 45.1758 20.3676 44.6813 20.6146C44.1805 20.8375 43.677 21.0542 43.1709 21.2646L45.173 25.2709C45.6076 26.1395 45.8337 27.0975 45.8334 28.0688V33.3334C45.8334 34.2127 45.6478 35.0821 45.2888 35.8849C44.9298 36.6876 44.4055 37.4055 43.7501 37.9917V40.625C43.7501 41.4538 43.4208 42.2487 42.8348 42.8348C42.2487 43.4208 41.4539 43.75 40.6251 43.75C39.7963 43.75 39.0014 43.4208 38.4154 42.8348C37.8293 42.2487 37.5001 41.4538 37.5001 40.625V39.5834H12.5001V40.625C12.5001 41.4538 12.1708 42.2487 11.5848 42.8348C10.9987 43.4208 10.2039 43.75 9.37508 43.75C8.54628 43.75 7.75142 43.4208 7.16537 42.8348C6.57932 42.2487 6.25008 41.4538 6.25008 40.625V37.9917C4.97091 36.8459 4.16675 35.1834 4.16675 33.3334V28.0667C4.16714 27.0968 4.39324 26.1404 4.82716 25.273L6.81258 21.298C6.3098 21.0868 5.81328 20.8598 5.323 20.6167C4.83098 20.3665 4.45698 19.933 4.28161 19.4096C4.10624 18.8862 4.14355 18.3149 4.3855 17.8188C4.5077 17.5739 4.67698 17.3554 4.88366 17.1759C5.09033 16.9964 5.33035 16.8594 5.59 16.7727C5.84965 16.6861 6.12383 16.6514 6.39688 16.6707C6.66993 16.6901 6.93649 16.763 7.18133 16.8855C7.67439 17.1285 8.17439 17.3535 8.68133 17.5605L11.5688 11.7896C12.0877 10.7513 12.8854 9.87798 13.8727 9.26753C14.8599 8.65707 15.9977 8.33361 17.1584 8.33337H32.8417ZM15.6251 27.0834C14.7963 27.0834 14.0014 27.4126 13.4154 27.9987C12.8293 28.5847 12.5001 29.3796 12.5001 30.2084C12.5001 31.0372 12.8293 31.832 13.4154 32.4181C14.0014 33.0041 14.7963 33.3334 15.6251 33.3334C16.4539 33.3334 17.2487 33.0041 17.8348 32.4181C18.4208 31.832 18.7501 31.0372 18.7501 30.2084C18.7501 29.3796 18.4208 28.5847 17.8348 27.9987C17.2487 27.4126 16.4539 27.0834 15.6251 27.0834ZM34.3751 27.0834C33.5463 27.0834 32.7514 27.4126 32.1654 27.9987C31.5793 28.5847 31.2501 29.3796 31.2501 30.2084C31.2501 31.0372 31.5793 31.832 32.1654 32.4181C32.7514 33.0041 33.5463 33.3334 34.3751 33.3334C35.2039 33.3334 35.9987 33.0041 36.5848 32.4181C37.1708 31.832 37.5001 31.0372 37.5001 30.2084C37.5001 29.3796 37.1708 28.5847 36.5848 27.9987C35.9987 27.4126 35.2039 27.0834 34.3751 27.0834ZM32.8417 12.5H17.1584C16.8155 12.5 16.4779 12.5846 16.1755 12.7463C15.8732 12.908 15.6154 13.1419 15.4251 13.4271L15.2959 13.6521L12.6501 18.9396C15.8751 19.9063 20.2209 20.8334 25.0001 20.8334C29.4626 20.8334 33.5438 20.025 36.6876 19.1313L37.348 18.9396L34.7042 13.6521C34.5509 13.3455 34.3243 13.0814 34.0445 12.8834C33.7646 12.6853 33.4402 12.5594 33.1001 12.5167L32.8438 12.5H32.8417Z" fill="#FEB420"/>
</svg>
