<svg width="50" height="50" viewBox="0 0 50 50" fill="none" xmlns="http://www.w3.org/2000/svg">
<path d="M21.2312 6.04162L9.01036 16.0791C8.30773 16.6595 7.74247 17.3883 7.35522 18.2132C6.96797 19.0382 6.76837 19.9387 6.77077 20.85V39.1875C6.77077 42.5312 9.42286 45.3125 12.777 45.3125H37.2229C40.577 45.3125 43.2291 42.5312 43.2291 39.1875V20.85C43.2315 19.9387 43.0319 19.0382 42.6447 18.2132C42.2574 17.3883 41.6921 16.6595 40.9895 16.0791L28.7708 6.04162C27.7103 5.16538 26.3777 4.68604 25.002 4.68604C23.6264 4.68604 22.2937 5.16538 21.2333 6.04162M30.7604 21.65C30.9268 21.7699 31.0681 21.9215 31.176 22.096C31.2839 22.2706 31.3563 22.4647 31.3892 22.6672C31.4221 22.8698 31.4148 23.0768 31.3676 23.2765C31.3205 23.4763 31.2345 23.6647 31.1145 23.8312L25.2812 31.9062C25.0886 32.1724 24.8384 32.3919 24.5494 32.5482C24.2603 32.7045 23.9397 32.7937 23.6115 32.8091C23.2832 32.8245 22.9557 32.7657 22.6533 32.6372C22.3508 32.5087 22.0812 32.3136 21.8645 32.0666L18.9937 28.7833C18.8531 28.6297 18.7446 28.4496 18.6746 28.2535C18.6046 28.0574 18.5744 27.8493 18.586 27.6414C18.5975 27.4335 18.6505 27.23 18.7418 27.0429C18.8331 26.8558 18.9609 26.6888 19.1177 26.5518C19.2744 26.4147 19.457 26.3104 19.6547 26.2449C19.8523 26.1794 20.0611 26.1541 20.2686 26.1704C20.4762 26.1868 20.6784 26.2444 20.8634 26.34C21.0484 26.4356 21.2124 26.5672 21.3458 26.727L23.4395 29.1187L28.5791 22.002C28.8217 21.6661 29.1878 21.4403 29.5968 21.3743C30.0059 21.3083 30.4244 21.4074 30.7604 21.65Z" fill="#FEB420"/>
</svg>
