<svg width="50" height="50" viewBox="0 0 50 50" fill="none" xmlns="http://www.w3.org/2000/svg">
<path d="M16.6667 37.5H11.4584C9.43341 37.5 7.71189 36.791 6.29383 35.3729C4.87578 33.9549 4.16675 32.2333 4.16675 30.2083V19.7917C4.16675 17.7667 4.87578 16.0451 6.29383 14.6271C7.71189 13.209 9.43341 12.5 11.4584 12.5H38.5418C40.5667 12.5 42.2883 13.209 43.7063 14.6271C45.1244 16.0451 45.8334 17.7667 45.8334 19.7917V30.2083C45.8334 32.2333 45.1244 33.9549 43.7063 35.3729C42.2883 36.791 40.5667 37.5 38.5418 37.5H33.3334C33.3334 37.9306 33.1737 38.3056 32.8543 38.625C32.5348 38.9444 32.1598 39.1042 31.7292 39.1042H18.2709C17.8404 39.1042 17.4654 38.9444 17.1459 38.625C16.8265 38.3056 16.6667 37.9306 16.6667 37.5Z" fill="#FEB420"/>
</svg>
