<svg width="414" height="30" viewBox="0 0 414 30" fill="none" xmlns="http://www.w3.org/2000/svg">
<path d="M15.9493 1.69453L19.104 8.88984C19.2227 9.16059 19.4119 9.39453 19.6519 9.56726C19.8918 9.73999 20.1737 9.84518 20.4681 9.87187L28.1532 10.5609C29.0228 10.6875 29.3696 11.7539 28.7392 12.368L22.9501 17.2312C22.4814 17.625 22.2681 18.2437 22.397 18.8414L24.0798 26.7188C24.2275 27.5836 23.3204 28.2445 22.5423 27.8344L15.8345 23.9062C15.5815 23.7577 15.2935 23.6794 15.0001 23.6794C14.7067 23.6794 14.4187 23.7577 14.1657 23.9062L7.45792 27.832C6.68214 28.2398 5.77277 27.5812 5.92042 26.7164L7.60323 18.8391C7.7298 18.2414 7.51886 17.6227 7.05011 17.2289L1.2587 12.3703C0.630578 11.7586 0.977453 10.6898 1.84464 10.5633L9.5298 9.87422C9.82422 9.84753 10.1061 9.74233 10.346 9.5696C10.5859 9.39687 10.7751 9.16293 10.8939 8.89219L14.0485 1.69688C14.44 0.909375 15.5603 0.909375 15.9493 1.69453Z" fill="#FDD835"/>
<path d="M15.7195 9.32114L15.1852 4.01958C15.1641 3.72427 15.1031 3.21802 15.5766 3.21802C15.9516 3.21802 16.1555 3.99849 16.1555 3.99849L17.7586 8.25474C18.3633 9.87427 18.1148 10.4297 17.5312 10.7579C16.8609 11.1329 15.8719 10.8399 15.7195 9.32114Z" fill="#FFFF8D"/>
<path d="M22.3313 16.7601L26.9298 13.1718C27.1571 12.982 27.5673 12.6796 27.2391 12.3351C26.979 12.0632 26.2758 12.4546 26.2758 12.4546L22.2516 14.0273C21.0516 14.4421 20.2548 15.0562 20.1844 15.8296C20.093 16.8609 21.0188 17.6554 22.3313 16.7601Z" fill="#F4B400"/>
<path d="M55.9493 1.69453L59.104 8.88984C59.2227 9.16059 59.4119 9.39453 59.6519 9.56726C59.8918 9.73999 60.1737 9.84518 60.4681 9.87187L68.1532 10.5609C69.0228 10.6875 69.3696 11.7539 68.7392 12.368L62.9501 17.2312C62.4814 17.625 62.2681 18.2437 62.397 18.8414L64.0798 26.7188C64.2275 27.5836 63.3204 28.2445 62.5423 27.8344L55.8345 23.9062C55.5815 23.7577 55.2935 23.6794 55.0001 23.6794C54.7067 23.6794 54.4187 23.7577 54.1657 23.9062L47.4579 27.832C46.6821 28.2398 45.7728 27.5812 45.9204 26.7164L47.6032 18.8391C47.7298 18.2414 47.5189 17.6227 47.0501 17.2289L41.2587 12.3703C40.6306 11.7586 40.9775 10.6898 41.8446 10.5633L49.5298 9.87422C49.8242 9.84753 50.1061 9.74233 50.346 9.5696C50.5859 9.39687 50.7751 9.16293 50.8939 8.89219L54.0485 1.69688C54.44 0.909375 55.5603 0.909375 55.9493 1.69453Z" fill="#FDD835"/>
<path d="M55.7195 9.32114L55.1852 4.01958C55.1641 3.72427 55.1031 3.21802 55.5766 3.21802C55.9516 3.21802 56.1555 3.99849 56.1555 3.99849L57.7586 8.25474C58.3633 9.87427 58.1148 10.4297 57.5312 10.7579C56.8609 11.1329 55.8719 10.8399 55.7195 9.32114Z" fill="#FFFF8D"/>
<path d="M62.3313 16.7601L66.9298 13.1718C67.1571 12.982 67.5673 12.6796 67.2391 12.3351C66.979 12.0632 66.2758 12.4546 66.2758 12.4546L62.2516 14.0273C61.0516 14.4421 60.2548 15.0562 60.1844 15.8296C60.093 16.8609 61.0188 17.6554 62.3313 16.7601Z" fill="#F4B400"/>
<path d="M95.9493 1.69453L99.104 8.88984C99.2227 9.16059 99.4119 9.39453 99.6519 9.56726C99.8918 9.73999 100.174 9.84518 100.468 9.87187L108.153 10.5609C109.023 10.6875 109.37 11.7539 108.739 12.368L102.95 17.2312C102.481 17.625 102.268 18.2437 102.397 18.8414L104.08 26.7188C104.227 27.5836 103.32 28.2445 102.542 27.8344L95.8345 23.9062C95.5815 23.7577 95.2935 23.6794 95.0001 23.6794C94.7067 23.6794 94.4187 23.7577 94.1657 23.9062L87.4579 27.832C86.6821 28.2398 85.7728 27.5812 85.9204 26.7164L87.6032 18.8391C87.7298 18.2414 87.5189 17.6227 87.0501 17.2289L81.2587 12.3703C80.6306 11.7586 80.9775 10.6898 81.8446 10.5633L89.5298 9.87422C89.8242 9.84753 90.1061 9.74233 90.346 9.5696C90.5859 9.39687 90.7751 9.16293 90.8939 8.89219L94.0485 1.69688C94.44 0.909375 95.5603 0.909375 95.9493 1.69453Z" fill="#FDD835"/>
<path d="M95.7195 9.32114L95.1852 4.01958C95.1641 3.72427 95.1031 3.21802 95.5766 3.21802C95.9516 3.21802 96.1555 3.99849 96.1555 3.99849L97.7586 8.25474C98.3633 9.87427 98.1148 10.4297 97.5312 10.7579C96.8609 11.1329 95.8719 10.8399 95.7195 9.32114Z" fill="#FFFF8D"/>
<path d="M102.331 16.7601L106.93 13.1718C107.157 12.982 107.567 12.6796 107.239 12.3351C106.979 12.0632 106.276 12.4546 106.276 12.4546L102.252 14.0273C101.052 14.4421 100.255 15.0562 100.184 15.8296C100.093 16.8609 101.019 17.6554 102.331 16.7601Z" fill="#F4B400"/>
<path d="M135.949 1.69453L139.104 8.88984C139.223 9.16059 139.412 9.39453 139.652 9.56726C139.892 9.73999 140.174 9.84518 140.468 9.87187L148.153 10.5609C149.023 10.6875 149.37 11.7539 148.739 12.368L142.95 17.2312C142.481 17.625 142.268 18.2437 142.397 18.8414L144.08 26.7188C144.227 27.5836 143.32 28.2445 142.542 27.8344L135.834 23.9062C135.582 23.7577 135.293 23.6794 135 23.6794C134.707 23.6794 134.419 23.7577 134.166 23.9062L127.458 27.832C126.682 28.2398 125.773 27.5812 125.92 26.7164L127.603 18.8391C127.73 18.2414 127.519 17.6227 127.05 17.2289L121.259 12.3703C120.631 11.7586 120.977 10.6898 121.845 10.5633L129.53 9.87422C129.824 9.84753 130.106 9.74233 130.346 9.5696C130.586 9.39687 130.775 9.16293 130.894 8.89219L134.049 1.69688C134.44 0.909375 135.56 0.909375 135.949 1.69453Z" fill="#FDD835"/>
<path d="M135.72 9.32114L135.185 4.01958C135.164 3.72427 135.103 3.21802 135.577 3.21802C135.952 3.21802 136.155 3.99849 136.155 3.99849L137.759 8.25474C138.363 9.87427 138.115 10.4297 137.531 10.7579C136.861 11.1329 135.872 10.8399 135.72 9.32114Z" fill="#FFFF8D"/>
<path d="M142.331 16.7601L146.93 13.1718C147.157 12.982 147.567 12.6796 147.239 12.3351C146.979 12.0632 146.276 12.4546 146.276 12.4546L142.252 14.0273C141.052 14.4421 140.255 15.0562 140.184 15.8296C140.093 16.8609 141.019 17.6554 142.331 16.7601Z" fill="#F4B400"/>
<path d="M175.949 1.69453L179.104 8.88984C179.223 9.16059 179.412 9.39453 179.652 9.56726C179.892 9.73999 180.174 9.84518 180.468 9.87187L188.153 10.5609C189.023 10.6875 189.37 11.7539 188.739 12.368L182.95 17.2312C182.481 17.625 182.268 18.2437 182.397 18.8414L184.08 26.7188C184.227 27.5836 183.32 28.2445 182.542 27.8344L175.834 23.9062C175.582 23.7577 175.293 23.6794 175 23.6794C174.707 23.6794 174.419 23.7577 174.166 23.9062L167.458 27.832C166.682 28.2398 165.773 27.5812 165.92 26.7164L167.603 18.8391C167.73 18.2414 167.519 17.6227 167.05 17.2289L161.259 12.3703C160.631 11.7586 160.977 10.6898 161.845 10.5633L169.53 9.87422C169.824 9.84753 170.106 9.74233 170.346 9.5696C170.586 9.39687 170.775 9.16293 170.894 8.89219L174.049 1.69688C174.44 0.909375 175.56 0.909375 175.949 1.69453Z" fill="#FDD835"/>
<path d="M175.72 9.32114L175.185 4.01958C175.164 3.72427 175.103 3.21802 175.577 3.21802C175.952 3.21802 176.155 3.99849 176.155 3.99849L177.759 8.25474C178.363 9.87427 178.115 10.4297 177.531 10.7579C176.861 11.1329 175.872 10.8399 175.72 9.32114Z" fill="#FFFF8D"/>
<path d="M182.331 16.7601L186.93 13.1718C187.157 12.982 187.567 12.6796 187.239 12.3351C186.979 12.0632 186.276 12.4546 186.276 12.4546L182.252 14.0273C181.052 14.4421 180.255 15.0562 180.184 15.8296C180.093 16.8609 181.019 17.6554 182.331 16.7601Z" fill="#F4B400"/>
<path d="M215.949 1.69453L219.104 8.88984C219.223 9.16059 219.412 9.39453 219.652 9.56726C219.892 9.73999 220.174 9.84518 220.468 9.87187L228.153 10.5609C229.023 10.6875 229.37 11.7539 228.739 12.368L222.95 17.2312C222.481 17.625 222.268 18.2437 222.397 18.8414L224.08 26.7188C224.227 27.5836 223.32 28.2445 222.542 27.8344L215.834 23.9062C215.582 23.7577 215.293 23.6794 215 23.6794C214.707 23.6794 214.419 23.7577 214.166 23.9062L207.458 27.832C206.682 28.2398 205.773 27.5812 205.92 26.7164L207.603 18.8391C207.73 18.2414 207.519 17.6227 207.05 17.2289L201.259 12.3703C200.631 11.7586 200.977 10.6898 201.845 10.5633L209.53 9.87422C209.824 9.84753 210.106 9.74233 210.346 9.5696C210.586 9.39687 210.775 9.16293 210.894 8.89219L214.049 1.69688C214.44 0.909375 215.56 0.909375 215.949 1.69453Z" fill="#FDD835"/>
<path d="M215.72 9.32114L215.185 4.01958C215.164 3.72427 215.103 3.21802 215.577 3.21802C215.952 3.21802 216.155 3.99849 216.155 3.99849L217.759 8.25474C218.363 9.87427 218.115 10.4297 217.531 10.7579C216.861 11.1329 215.872 10.8399 215.72 9.32114Z" fill="#FFFF8D"/>
<path d="M222.331 16.7601L226.93 13.1718C227.157 12.982 227.567 12.6796 227.239 12.3351C226.979 12.0632 226.276 12.4546 226.276 12.4546L222.252 14.0273C221.052 14.4421 220.255 15.0562 220.184 15.8296C220.093 16.8609 221.019 17.6554 222.331 16.7601Z" fill="#F4B400"/>
<path d="M259.189 20.6619C258.473 20.6619 257.819 20.4873 257.227 20.1381C256.635 19.783 256.161 19.3095 255.806 18.7177C255.457 18.1258 255.283 17.4718 255.283 16.7557C255.283 16.0336 255.457 15.3796 255.806 14.7937C256.161 14.2018 256.635 13.7313 257.227 13.3821C257.819 13.027 258.473 12.8494 259.189 12.8494C259.911 12.8494 260.565 13.027 261.151 13.3821C261.743 13.7313 262.213 14.2018 262.562 14.7937C262.918 15.3796 263.095 16.0336 263.095 16.7557C263.095 17.4718 262.918 18.1258 262.562 18.7177C262.213 19.3095 261.743 19.783 261.151 20.1381C260.565 20.4873 259.911 20.6619 259.189 20.6619ZM282.654 24H278.535L284.811 5.81818H289.765L296.033 24H291.914L287.359 9.97301H287.217L282.654 24ZM282.397 16.8533H292.127V19.854H282.397V16.8533ZM302.54 24.2219C301.505 24.2219 300.567 23.9556 299.726 23.4229C298.892 22.8844 298.229 22.0942 297.738 21.0526C297.252 20.005 297.01 18.7206 297.01 17.1996C297.01 15.6371 297.261 14.3379 297.764 13.3022C298.267 12.2605 298.936 11.4822 299.771 10.9673C300.611 10.4465 301.531 10.1861 302.532 10.1861C303.295 10.1861 303.931 10.3163 304.44 10.5767C304.955 10.8312 305.37 11.1508 305.683 11.5355C306.003 11.9143 306.245 12.2872 306.411 12.6541H306.527V5.81818H310.3V24H306.571V21.8161H306.411C306.234 22.1948 305.982 22.5707 305.657 22.9435C305.337 23.3105 304.92 23.6153 304.405 23.858C303.896 24.1006 303.274 24.2219 302.54 24.2219ZM303.739 21.2124C304.349 21.2124 304.863 21.0466 305.284 20.7152C305.71 20.3778 306.035 19.9073 306.26 19.3036C306.491 18.6999 306.606 17.9927 306.606 17.1818C306.606 16.371 306.494 15.6667 306.269 15.0689C306.044 14.4711 305.719 14.0095 305.293 13.6839C304.866 13.3584 304.349 13.1957 303.739 13.1957C303.117 13.1957 302.594 13.3643 302.168 13.7017C301.741 14.0391 301.419 14.5066 301.2 15.1044C300.981 15.7022 300.871 16.3946 300.871 17.1818C300.871 17.9749 300.981 18.6763 301.2 19.2859C301.425 19.8896 301.747 20.363 302.168 20.7063C302.594 21.0437 303.117 21.2124 303.739 21.2124ZM319.624 24.2663C318.221 24.2663 317.014 23.9822 316.001 23.4141C314.995 22.84 314.22 22.0291 313.675 20.9815C313.131 19.928 312.859 18.6822 312.859 17.244C312.859 15.8413 313.131 14.6102 313.675 13.5508C314.22 12.4914 314.986 11.6657 315.975 11.0739C316.969 10.482 318.135 10.1861 319.473 10.1861C320.372 10.1861 321.21 10.3311 321.985 10.6211C322.766 10.9052 323.447 11.3343 324.027 11.9084C324.613 12.4825 325.069 13.2045 325.394 14.0746C325.72 14.9387 325.883 15.9508 325.883 17.1108V18.1495H314.368V15.8058H322.322C322.322 15.2612 322.204 14.7789 321.967 14.3587C321.731 13.9384 321.402 13.61 320.982 13.3732C320.568 13.1306 320.085 13.0092 319.535 13.0092C318.961 13.0092 318.452 13.1424 318.008 13.4087C317.57 13.6692 317.227 14.0213 316.978 14.4652C316.729 14.9032 316.602 15.3915 316.596 15.93V18.1584C316.596 18.8331 316.721 19.4161 316.969 19.9073C317.224 20.3986 317.582 20.7773 318.043 21.0437C318.505 21.31 319.052 21.4432 319.686 21.4432C320.106 21.4432 320.491 21.384 320.84 21.2656C321.189 21.1473 321.488 20.9697 321.737 20.733C321.985 20.4962 322.175 20.2062 322.305 19.8629L325.803 20.0938C325.625 20.9342 325.261 21.6681 324.711 22.2955C324.166 22.9169 323.462 23.4022 322.598 23.7514C321.74 24.0947 320.748 24.2663 319.624 24.2663ZM328.422 24V5.81818H332.204V12.6541H332.319C332.485 12.2872 332.724 11.9143 333.038 11.5355C333.358 11.1508 333.772 10.8312 334.281 10.5767C334.796 10.3163 335.435 10.1861 336.199 10.1861C337.193 10.1861 338.11 10.4465 338.951 10.9673C339.791 11.4822 340.463 12.2605 340.966 13.3022C341.469 14.3379 341.721 15.6371 341.721 17.1996C341.721 18.7206 341.475 20.005 340.984 21.0526C340.498 22.0942 339.836 22.8844 338.995 23.4229C338.161 23.9556 337.225 24.2219 336.19 24.2219C335.456 24.2219 334.831 24.1006 334.316 23.858C333.807 23.6153 333.39 23.3105 333.065 22.9435C332.739 22.5707 332.491 22.1948 332.319 21.8161H332.15V24H328.422ZM332.124 17.1818C332.124 17.9927 332.236 18.6999 332.461 19.3036C332.686 19.9073 333.011 20.3778 333.438 20.7152C333.864 21.0466 334.382 21.2124 334.991 21.2124C335.607 21.2124 336.128 21.0437 336.554 20.7063C336.98 20.363 337.302 19.8896 337.521 19.2859C337.746 18.6763 337.859 17.9749 337.859 17.1818C337.859 16.3946 337.749 15.7022 337.53 15.1044C337.311 14.5066 336.989 14.0391 336.563 13.7017C336.136 13.3643 335.613 13.1957 334.991 13.1957C334.376 13.1957 333.855 13.3584 333.429 13.6839C333.008 14.0095 332.686 14.4711 332.461 15.0689C332.236 15.6667 332.124 16.371 332.124 17.1818ZM348.133 24.2575C347.263 24.2575 346.487 24.1065 345.807 23.8047C345.126 23.4969 344.587 23.0442 344.191 22.4464C343.8 21.8427 343.605 21.091 343.605 20.1914C343.605 19.4338 343.744 18.7976 344.022 18.2827C344.3 17.7678 344.679 17.3535 345.159 17.0398C345.638 16.7261 346.182 16.4893 346.792 16.3295C347.408 16.1697 348.053 16.0573 348.727 15.9922C349.52 15.9093 350.16 15.8324 350.645 15.7614C351.13 15.6844 351.482 15.572 351.701 15.424C351.92 15.276 352.03 15.0571 352.03 14.767V14.7138C352.03 14.1515 351.852 13.7165 351.497 13.4087C351.148 13.101 350.651 12.9471 350.006 12.9471C349.325 12.9471 348.784 13.098 348.381 13.3999C347.979 13.6958 347.712 14.0687 347.582 14.5185L344.084 14.2344C344.262 13.4058 344.611 12.6896 345.132 12.0859C345.653 11.4763 346.324 11.0088 347.147 10.6832C347.976 10.3518 348.935 10.1861 350.024 10.1861C350.781 10.1861 351.506 10.2749 352.199 10.4524C352.897 10.63 353.516 10.9052 354.054 11.2781C354.599 11.6509 355.028 12.1303 355.341 12.7163C355.655 13.2963 355.812 13.9917 355.812 14.8026V24H352.225V22.109H352.119C351.9 22.5352 351.607 22.911 351.24 23.2365C350.873 23.5561 350.432 23.8076 349.917 23.9911C349.402 24.1687 348.807 24.2575 348.133 24.2575ZM349.216 21.6474C349.772 21.6474 350.263 21.5379 350.689 21.3189C351.116 21.094 351.45 20.7921 351.693 20.4134C351.935 20.0346 352.057 19.6055 352.057 19.1261V17.679C351.938 17.7559 351.775 17.8269 351.568 17.892C351.367 17.9512 351.139 18.0075 350.885 18.0607C350.63 18.1081 350.376 18.1525 350.121 18.1939C349.867 18.2294 349.636 18.262 349.429 18.2915C348.985 18.3567 348.597 18.4602 348.266 18.6023C347.934 18.7443 347.677 18.9367 347.493 19.1793C347.31 19.4161 347.218 19.712 347.218 20.0671C347.218 20.582 347.405 20.9756 347.777 21.2479C348.156 21.5142 348.636 21.6474 349.216 21.6474ZM360.593 29.1136C360.113 29.1136 359.663 29.0752 359.243 28.9982C358.829 28.9272 358.486 28.8355 358.213 28.723L359.066 25.8999C359.51 26.036 359.909 26.11 360.264 26.1218C360.625 26.1336 360.936 26.0508 361.196 25.8732C361.463 25.6957 361.679 25.3938 361.844 24.9677L362.066 24.3906L357.175 10.3636H361.152L363.975 20.3778H364.117L366.967 10.3636H370.971L365.671 25.4737C365.416 26.2076 365.07 26.8468 364.632 27.3913C364.2 27.9418 363.653 28.3649 362.99 28.6609C362.327 28.9627 361.528 29.1136 360.593 29.1136ZM378.628 24.2663C377.249 24.2663 376.056 23.9734 375.05 23.3874C374.05 22.7956 373.278 21.9729 372.733 20.9194C372.189 19.86 371.916 18.6319 371.916 17.2351C371.916 15.8265 372.189 14.5954 372.733 13.5419C373.278 12.4825 374.05 11.6598 375.05 11.0739C376.056 10.482 377.249 10.1861 378.628 10.1861C380.007 10.1861 381.197 10.482 382.197 11.0739C383.203 11.6598 383.978 12.4825 384.523 13.5419C385.067 14.5954 385.34 15.8265 385.34 17.2351C385.34 18.6319 385.067 19.86 384.523 20.9194C383.978 21.9729 383.203 22.7956 382.197 23.3874C381.197 23.9734 380.007 24.2663 378.628 24.2663ZM378.646 21.3366C379.273 21.3366 379.797 21.1591 380.217 20.804C380.637 20.4429 380.954 19.9517 381.167 19.3303C381.386 18.7088 381.496 18.0015 381.496 17.2085C381.496 16.4154 381.386 15.7081 381.167 15.0866C380.954 14.4652 380.637 13.974 380.217 13.6129C379.797 13.2519 379.273 13.0714 378.646 13.0714C378.012 13.0714 377.48 13.2519 377.048 13.6129C376.622 13.974 376.299 14.4652 376.08 15.0866C375.867 15.7081 375.76 16.4154 375.76 17.2085C375.76 18.0015 375.867 18.7088 376.08 19.3303C376.299 19.9517 376.622 20.4429 377.048 20.804C377.48 21.1591 378.012 21.3366 378.646 21.3366ZM404.931 14.2521L401.468 14.4652C401.409 14.1693 401.282 13.9029 401.087 13.6662C400.891 13.4235 400.634 13.2312 400.314 13.0891C400.001 12.9412 399.625 12.8672 399.187 12.8672C398.601 12.8672 398.107 12.9915 397.704 13.2401C397.302 13.4827 397.101 13.8082 397.101 14.2166C397.101 14.5421 397.231 14.8174 397.491 15.0423C397.752 15.2672 398.198 15.4477 398.832 15.5838L401.3 16.081C402.626 16.3532 403.614 16.7912 404.265 17.3949C404.916 17.9986 405.242 18.7917 405.242 19.7741C405.242 20.6679 404.978 21.4521 404.451 22.1268C403.931 22.8015 403.214 23.3282 402.303 23.707C401.397 24.0799 400.353 24.2663 399.169 24.2663C397.364 24.2663 395.926 23.8905 394.854 23.1388C393.789 22.3813 393.165 21.3514 392.981 20.0494L396.701 19.854C396.813 20.4045 397.086 20.8247 397.518 21.1147C397.95 21.3988 398.503 21.5408 399.178 21.5408C399.841 21.5408 400.374 21.4136 400.776 21.1591C401.184 20.8987 401.391 20.5643 401.397 20.1559C401.391 19.8126 401.246 19.5315 400.962 19.3125C400.678 19.0876 400.24 18.916 399.648 18.7976L397.287 18.3271C395.955 18.0607 394.964 17.5991 394.313 16.9421C393.668 16.2852 393.345 15.4477 393.345 14.4297C393.345 13.5537 393.582 12.7991 394.055 12.1658C394.535 11.5326 395.207 11.0443 396.071 10.701C396.941 10.3577 397.959 10.1861 399.125 10.1861C400.847 10.1861 402.202 10.5501 403.191 11.2781C404.185 12.006 404.765 12.9974 404.931 14.2521ZM409.834 24.2308C409.248 24.2308 408.745 24.0237 408.324 23.6094C407.91 23.1892 407.703 22.6861 407.703 22.1001C407.703 21.5201 407.91 21.023 408.324 20.6087C408.745 20.1944 409.248 19.9872 409.834 19.9872C410.402 19.9872 410.899 20.1944 411.325 20.6087C411.751 21.023 411.964 21.5201 411.964 22.1001C411.964 22.4908 411.864 22.8488 411.662 23.1744C411.467 23.494 411.21 23.7514 410.89 23.9467C410.57 24.1361 410.218 24.2308 409.834 24.2308Z" fill="white"/>
</svg>
