<svg width="50" height="50" viewBox="0 0 50 50" fill="none" xmlns="http://www.w3.org/2000/svg">
<path d="M25.0001 5.0354C15.7126 5.0354 8.25735 8.25936 2.64798 12.6531C1.26985 13.7333 0.991729 15.6479 1.8386 17.1292L3.2584 19.6146C4.40735 21.625 7.06881 22.0312 8.9011 20.7333C13.2199 17.6719 18.7271 15.2041 24.999 15.2041C31.2709 15.2041 36.7792 17.6729 41.098 20.7333C42.9292 22.0312 45.5907 21.625 46.7396 19.6146L48.1605 17.1292C49.0063 15.6479 48.7292 13.7333 47.3511 12.6531C41.7396 8.2604 34.2876 5.0354 25.0001 5.0354ZM24.9584 35.8375C23.6099 35.8378 22.3168 36.3737 21.3635 37.3274C20.4102 38.2811 19.8748 39.5744 19.8751 40.9229C19.8753 42.2714 20.4113 43.5645 21.365 44.5178C22.3187 45.4711 23.612 46.0065 24.9605 46.0062C26.3089 46.006 27.6021 45.47 28.5554 44.5163C29.5087 43.5626 30.0441 42.2693 30.0438 40.9208C30.0435 39.5724 29.5076 38.2792 28.5539 37.3259C27.6002 36.3726 26.3069 35.8372 24.9584 35.8375Z" fill="#FEB420"/>
<path d="M25.0001 21.0062C19.2657 21.0062 15.2918 22.5948 11.9793 25.1031C10.5105 26.2146 10.3251 28.2562 11.3064 29.7281L12.697 31.8146C13.7762 33.4343 15.9939 33.6312 17.5449 32.6718C19.4887 31.4698 22.0678 30.4396 25.0001 30.4396C27.9324 30.4396 30.5105 31.4698 32.4543 32.6718C34.0064 33.6302 36.223 33.4343 37.3032 31.8146L38.6928 29.7291C39.6751 28.2562 39.4887 26.2146 38.0209 25.1031C34.7074 22.5948 30.7334 21.0062 25.0001 21.0062Z" fill="#FEB420"/>
</svg>
